<svg xmlns="http://www.w3.org/2000/svg" viewBox="0 0 24 24" width="32" height="32" fill="#139c55"><path d="M21.0544 2.87271C18.6659 1.13476 15.1105 1.05436 12.396 2.66444C10.7027 3.669 9.38799 5.25301 8.52047 7.07065C7.30799 6.22383 5.67919 6.27306 4.41725 7.15175L4.41703 7.1519C3.12579 8.05141 2.37894 9.53982 2.45781 11.0567C2.53671 12.5739 3.42436 13.978 4.78652 14.7381C6.20869 15.5317 7.95475 15.4208 9.25686 14.4963C10.1587 16.3245 11.6669 17.8863 13.4345 18.9197C15.8643 20.3403 18.6534 20.7302 21.0371 19.9881C21.8499 19.7351 22.2536 18.8471 21.9904 18.0617C21.7272 17.2762 20.897 16.9019 20.0841 17.1549C18.2573 17.723 16.1408 17.4332 14.2882 16.3503C11.9056 14.9575 10.3547 12.4411 10.1179 9.71183C10.103 9.53955 10.1035 9.36647 10.1197 9.19318L13.7824 13.3533L15.352 11.9754L11.0857 7.12933C11.9806 5.82862 13.3082 4.70783 14.8876 4.14812C16.5916 3.54426 18.4239 3.6559 19.8665 4.70425C19.9678 4.77783 20.1009 4.80556 20.218 4.7667C20.3353 4.72782 20.4285 4.62939 20.4633 4.51299C20.498 4.39659 20.4697 4.26908 20.3957 4.16843L21.0544 2.87271ZM8.01633 13.3069C7.03923 14.1509 5.56847 14.2188 4.41725 13.4165C3.39545 12.8465 2.7299 11.7925 2.67069 10.655C2.61145 9.51737 3.17144 8.40051 4.14051 7.72522C5.30232 6.91574 6.84074 6.95388 7.95475 7.82281L8.01633 13.3069Z"></path></svg>
